<!DOCTYPE svg PUBLIC "-//W3C//DTD SVG 1.1//EN" "http://www.w3.org/Graphics/SVG/1.1/DTD/svg11.dtd">

<svg width="800px" height="800px" viewBox="0 0 48 48" xmlns="http://www.w3.org/2000/svg" fill="#ffffff" stroke="#ffffff" stroke-width="0.00048000000000000007">

<g id="SVGRepo_bgCarrier" stroke-width="0"/>

<g id="SVGRepo_iconCarrier"> <g id="Layer_2" data-name="Layer 2"> <g id="Icons"> <g> <rect width="48" height="48" fill="none"/> <path d="M45,19H42V15a4,4,0,0,0-4-4H6a4,4,0,0,0-4,4V33a4,4,0,0,0,4,4H38a4,4,0,0,0,4-4V29h3a1,1,0,0,0,1-1V20A1,1,0,0,0,45,19ZM33.2,28.1,24,25v4a1,1,0,0,1-1.7.7L10.2,20.8a.5.5,0,0,1,.6-.9L20,23V19a1,1,0,0,1,1.7-.7l12.1,8.9A.5.5,0,0,1,33.2,28.1Z"/> </g> </g> </g> </g>

</svg>