<?xml version="1.0" encoding="UTF-8" standalone="no"?>
<!-- Creator: CorelDRAW X8 -->

<svg
   xml:space="preserve"
   width="512"
   height="512"
   version="1.1"
   style="clip-rule:evenodd;fill-rule:evenodd;image-rendering:optimizeQuality;shape-rendering:geometricPrecision;text-rendering:geometricPrecision"
   viewBox="0 0 13546.916 13546.916"
   id="svg10"
   sodipodi:docname="Lost_Treasures_Icon.svg"
   inkscape:version="1.1 (c68e22c387, 2021-05-23)"
   xmlns:inkscape="http://www.inkscape.org/namespaces/inkscape"
   xmlns:sodipodi="http://sodipodi.sourceforge.net/DTD/sodipodi-0.dtd"
   xmlns="http://www.w3.org/2000/svg"
   xmlns:svg="http://www.w3.org/2000/svg"><sodipodi:namedview
   id="namedview12"
   pagecolor="#ffffff"
   bordercolor="#666666"
   borderopacity="1.0"
   inkscape:pageshadow="2"
   inkscape:pageopacity="0.0"
   inkscape:pagecheckerboard="0"
   inkscape:document-units="mm"
   showgrid="false"
   units="px"
   width="512px"
   inkscape:zoom="0.39062619"
   inkscape:cx="-60.159817"
   inkscape:cy="408.31875"
   inkscape:window-width="1366"
   inkscape:window-height="697"
   inkscape:window-x="-8"
   inkscape:window-y="-8"
   inkscape:window-maximized="1"
   inkscape:current-layer="Layer_x0020_1" />
 <defs
   id="defs4">
  <style
   type="text/css"
   id="style2">
   <![CDATA[
    .fil0 {fill:#ffffff}
   ]]>
  </style>
 </defs>
 <g
   id="Layer_x0020_1"
   inkscape:label="Layer 1"
   inkscape:groupmode="layer">
  <metadata
   id="CorelCorpID_0Corel-Layer" />
  <path
   class="fil0"
   d="m 8270.1666,5032.5058 v 1992.633 H 6771.9687 5276.7493 V 5032.5058 H 6771.9687 Z M 2989.2424,1729.322 H 1729.3265 V 4892.5152 H 2989.2424 Z M 4478.5047,6530.7037 H 317.50584 V 5526.9409 H 4478.5047 Z M 5827.7764,2053.9812 H 3304.966 v 2838.534 H 4782.3142 V 4541.0493 H 5827.7764 Z M 3304.966,7162.1509 V 11492.926 H 5827.7764 V 7516.5954 H 4782.3142 V 7162.1509 Z M 719.60667,3459.8448 V 4892.5152 H 1476.1519 V 2557.3518 Z m 0,3702.3061 V 11519.732 H 1476.1519 V 7162.1509 Z m 1009.71983,0 V 11817.585 H 2989.2424 V 7162.1509 Z M 9068.4112,6530.7037 H 13229.41 V 5526.9409 H 9068.4112 Z M 7719.1395,2053.9812 H 10241.95 v 2838.534 H 8764.6017 V 4541.0493 H 7719.1395 Z M 10241.95,7162.1509 V 11492.926 H 7719.1395 V 7516.5954 h 1045.4622 v -354.4445 z m 2582.381,-3702.3061 v 1432.6704 h -756.545 V 2557.3518 Z m 0,3702.3061 v 4357.5811 h -756.545 V 7162.1509 Z M 10554.695,1729.322 H 11817.59 V 4892.5152 H 10554.695 Z M 11817.59,7162.1509 V 11817.585 H 10554.695 V 7162.1509 Z M 6143.5,1729.322 H 7403.4159 V 4541.0493 H 6771.9687 6143.5 v 0 z M 7403.4159,7516.5954 V 11817.585 H 6771.9687 6143.5 v 0 -4300.9896 0 h 628.4687 z m -464.6498,-1629.253 c 175.7329,-151.9048 68.506,-443.8002 -166.7974,-443.8002 -232.3249,0 -339.5518,291.8954 -163.8189,443.8002 l -62.549,804.2016 h 226.3679 229.3464 z"
   id="path7"
   style="stroke-width:2.97852" />
 </g>
</svg>
